<svg width="72" height="29" viewBox="0 0 72 29" fill="none" xmlns="http://www.w3.org/2000/svg">
<path d="M0 0H72V29H0V0Z" fill="black"/>
<path d="M14.4093 10.0044C15.0435 9.78248 15.72 9.6641 16.4218 9.6641C19.4941 9.6641 22.059 11.9547 22.6453 15L27 14.0678C26.0022 8.89464 21.6447 5 16.4218 5C15.2239 5 14.0767 5.2042 13 5.58301L14.4093 10.0044Z" fill="#FFCB05"/>
<path d="M8.86992 24L12 20.7063C10.6042 19.5545 9.72358 17.8728 9.72358 15.9986C9.72358 14.1272 10.6042 12.4455 12 11.2965L8.86992 8C6.49765 9.95782 5 12.8165 5 15.9986C5 19.1835 6.49765 22.0422 8.86992 24" fill="#00A4E0"/>
<path d="M22.6453 17C22.0562 20.0441 19.4941 22.3331 16.4246 22.3331C15.72 22.3331 15.0407 22.2147 14.4093 21.9896L13 26.4196C14.0767 26.7957 15.2267 27 16.4246 27C21.6418 27 25.9966 23.109 27 17.9387L22.6453 17Z" fill="#EF4123"/>
<path d="M32.2168 20.4178C32.0424 20.1578 31.81 19.7425 31.6664 19.435C30.8287 17.6344 30.7911 15.7703 31.4954 13.9824C32.2715 12.0201 33.7554 10.5206 35.6734 9.75343C38.0838 8.79288 40.7472 8.97992 43.0584 10.2511C44.5252 11.031 45.5645 12.2356 46.3543 13.9412C46.4535 14.1599 46.5424 14.3913 46.6312 14.5911L32.2168 20.4178ZM37.0307 12.6478C35.3178 13.3293 34.4357 14.8193 34.6204 16.5629L41.8686 13.6685C40.6207 12.3117 39.0001 11.8616 37.0307 12.6478V12.6478ZM42.7712 18.9436C42.7678 18.9436 42.7678 18.9468 42.7678 18.9468L42.6174 18.8517C42.1831 19.5016 41.5096 20.031 40.6583 20.3734C39.0377 21.0264 37.5368 20.8584 36.4564 19.9803L36.3572 20.1198C36.3572 20.1198 36.3572 20.1166 36.3538 20.1166L34.5144 22.6685C34.9725 22.9634 35.4614 23.2106 35.9743 23.4104C38.0052 24.1934 40.0839 24.1553 42.1319 23.3311C43.6123 22.7351 44.7747 21.8285 45.5679 20.6777L42.7712 18.9436ZM51.6674 6V20.1832L54.047 21.0771L52.6965 24L50.0707 22.9856C49.4827 22.7478 49.0792 22.3864 48.7784 21.9775C48.4878 21.5622 48.2724 20.9884 48.2724 20.2212V6H51.6674ZM57.8284 16.5724C57.8284 15.3646 58.4062 14.2804 59.3157 13.5449L56.8745 11.0215C55.2197 12.3783 54.1769 14.3596 54.1769 16.566C54.1735 18.7756 55.2163 20.7601 56.8677 22.1169L59.3054 19.5935C58.3994 18.8549 57.8284 17.777 57.8284 16.5724V16.5724ZM62.1637 20.5953C61.685 20.5953 61.22 20.5192 60.7893 20.3861L59.6234 23.5974C60.42 23.8447 61.2713 23.981 62.1603 23.981C66.0237 23.9842 69.2478 21.4417 69.9966 18.0655L66.4135 17.3871C66.0066 19.2226 64.2595 20.5985 62.1637 20.5953V20.5953ZM62.1739 9.16379C61.2884 9.16379 60.4371 9.29694 59.6405 9.54104L60.7961 12.7555C61.2303 12.6224 61.6919 12.5495 62.1705 12.5495C64.2698 12.5527 66.0203 13.9348 66.4169 15.7735L70 15.1014C69.2649 11.7189 66.0408 9.16696 62.1739 9.16379V9.16379Z" fill="white"/>
</svg>
