<svg width="54" height="34" viewBox="0 0 54 34" fill="none" xmlns="http://www.w3.org/2000/svg">
<path d="M47.1758 32.7258V32.8089H47.2534C47.2679 32.8092 47.2822 32.8055 47.2949 32.7984C47.3 32.7948 47.304 32.79 47.3068 32.7844C47.3095 32.7789 47.3108 32.7727 47.3105 32.7666C47.3108 32.7605 47.3095 32.7545 47.3067 32.749C47.304 32.7436 47.2999 32.739 47.2949 32.7356C47.2824 32.7281 47.2679 32.7244 47.2534 32.725H47.1758V32.7258ZM47.2542 32.667C47.2874 32.665 47.3203 32.6745 47.3473 32.694C47.3581 32.7029 47.3667 32.7142 47.3723 32.7269C47.378 32.7397 47.3806 32.7536 47.3799 32.7676C47.3804 32.7796 47.3783 32.7916 47.3738 32.8027C47.3693 32.8139 47.3624 32.8239 47.3537 32.8322C47.3329 32.8503 47.3068 32.8612 47.2793 32.8632L47.3832 32.9816H47.3032L47.2076 32.864H47.1767V32.9816H47.1098V32.6672H47.2552L47.2542 32.667ZM47.2334 33.0901C47.2685 33.0904 47.3033 33.0833 47.3354 33.0693C47.3664 33.056 47.3946 33.0368 47.4185 33.013C47.4425 32.9892 47.4616 32.961 47.4749 32.9299C47.5021 32.864 47.5021 32.79 47.4749 32.7242C47.4614 32.6932 47.4423 32.665 47.4185 32.6411C47.3946 32.6172 47.3664 32.5981 47.3354 32.5847C47.3031 32.5715 47.2684 32.5648 47.2334 32.5652C47.1978 32.5649 47.1625 32.5715 47.1295 32.5847C47.0978 32.5978 47.0689 32.617 47.0445 32.6411C47.0078 32.6788 46.9829 32.7264 46.973 32.7782C46.9632 32.8299 46.9687 32.8834 46.989 32.932C47.0017 32.9631 47.0206 32.9914 47.0445 33.0151C47.069 33.0391 47.0978 33.0583 47.1295 33.0714C47.1623 33.0854 47.1977 33.0925 47.2334 33.0922M47.2334 32.4896C47.3247 32.4895 47.4124 32.5253 47.4776 32.5893C47.509 32.62 47.534 32.6567 47.5511 32.6972C47.5689 32.7387 47.578 32.7834 47.578 32.8286C47.578 32.8738 47.5689 32.9185 47.5511 32.96C47.5336 33.0002 47.5086 33.0368 47.4776 33.0679C47.4457 33.0984 47.4086 33.1231 47.3681 33.1406C47.3255 33.1587 47.2797 33.1679 47.2334 33.1676C47.1866 33.1679 47.1402 33.1587 47.0971 33.1406C47.0561 33.1235 47.0187 33.0988 46.9868 33.0679C46.9557 33.0357 46.9311 32.9979 46.9142 32.9565C46.8965 32.9149 46.8873 32.8702 46.8873 32.8251C46.8873 32.7799 46.8965 32.7352 46.9142 32.6936C46.9314 32.6532 46.9564 32.6165 46.9878 32.5858C47.0193 32.5543 47.0568 32.5296 47.0981 32.5131C47.1413 32.4949 47.1876 32.4857 47.2344 32.486M15.4168 31.2755C15.4168 30.676 15.8095 30.1835 16.4514 30.1835C17.0648 30.1835 17.4787 30.6548 17.4787 31.2755C17.4787 31.8961 17.0648 32.3674 16.4514 32.3674C15.8095 32.3674 15.4168 31.8749 15.4168 31.2755M18.1779 31.2755V29.5695H17.4363V29.9851C17.2011 29.678 16.8443 29.4854 16.3591 29.4854C15.4033 29.4854 14.6532 30.2351 14.6532 31.2763C14.6532 32.3175 15.4029 33.0672 16.3591 33.0672C16.8441 33.0672 17.2011 32.8744 17.4363 32.5675V32.9816H18.1771V31.2755H18.1779ZM43.2355 31.2755C43.2355 30.676 43.6283 30.1835 44.2703 30.1835C44.8844 30.1835 45.2976 30.6548 45.2976 31.2755C45.2976 31.8961 44.8844 32.3674 44.2703 32.3674C43.6285 32.3674 43.2355 31.8749 43.2355 31.2755ZM45.9975 31.2755V28.2002H45.2553V29.9851C45.02 29.678 44.6633 29.4854 44.1781 29.4854C43.2223 29.4854 42.4721 30.2351 42.4721 31.2763C42.4721 32.3175 43.2218 33.0672 44.1781 33.0672C44.6633 33.0672 45.02 32.8744 45.2553 32.5675V32.9816H45.9975V31.2755ZM27.3821 30.1484C27.86 30.1484 28.1669 30.4481 28.2453 30.9756H26.4757C26.5549 30.4832 26.8539 30.1484 27.3823 30.1484M27.3971 29.4835C26.3976 29.4835 25.6984 30.2108 25.6984 31.2744C25.6984 32.3589 26.4257 33.0654 27.4467 33.0654C27.9604 33.0654 28.4308 32.9372 28.8447 32.5874L28.4813 32.0378C28.1954 32.2664 27.8313 32.3946 27.4891 32.3946C27.0112 32.3946 26.5761 32.1733 26.4691 31.5593H29.0014C29.0087 31.467 29.0162 31.374 29.0162 31.2742C29.0087 30.211 28.3512 29.4833 27.3967 29.4833M36.3503 31.2742C36.3503 30.6748 36.743 30.1823 37.3848 30.1823C37.9982 30.1823 38.4122 30.6536 38.4122 31.2742C38.4122 31.8949 37.9982 32.3662 37.3848 32.3662C36.743 32.3662 36.3501 31.8737 36.3501 31.2742M39.1112 31.2742V29.5695H38.37V29.9851C38.1339 29.678 37.778 29.4854 37.2928 29.4854C36.337 29.4854 35.5868 30.2351 35.5868 31.2763C35.5868 32.3175 36.3365 33.0672 37.2928 33.0672C37.778 33.0672 38.1339 32.8744 38.37 32.5675V32.9816H39.1114V31.2755L39.1112 31.2742ZM32.1623 31.2742C32.1623 32.3088 32.8825 33.0652 33.9817 33.0652C34.4953 33.0652 34.8376 32.9509 35.2076 32.6585L34.8515 32.059C34.573 32.2591 34.2807 32.3662 33.958 32.3662C33.366 32.3589 32.9307 31.9308 32.9307 31.2742C32.9307 30.6176 33.366 30.1898 33.958 30.1823C34.2799 30.1823 34.5722 30.2893 34.8515 30.4894L35.2076 29.8899C34.8369 29.5976 34.4947 29.4833 33.9817 29.4833C32.8825 29.4833 32.1623 30.2394 32.1623 31.2742M41.7226 29.4833C41.2948 29.4833 41.0162 29.6834 40.8235 29.983V29.5695H40.0886V32.9798H40.831V31.0681C40.831 30.5037 41.0735 30.1902 41.5583 30.1902C41.717 30.1879 41.8746 30.2171 42.0221 30.276L42.2506 29.577C42.0865 29.5124 41.8725 29.4839 41.7222 29.4839M21.8443 29.8407C21.4876 29.6055 20.9959 29.4839 20.4536 29.4839C19.5896 29.4839 19.0334 29.898 19.0334 30.5756C19.0334 31.1317 19.4475 31.4747 20.2101 31.5817L20.5604 31.6316C20.967 31.6888 21.159 31.7958 21.159 31.9884C21.159 32.2521 20.8889 32.4025 20.3817 32.4025C19.8681 32.4025 19.4974 32.2384 19.2474 32.0457L18.8989 32.624C19.3056 32.9236 19.8192 33.0666 20.3755 33.0666C21.3604 33.0666 21.9312 32.6028 21.9312 31.9535C21.9312 31.354 21.4819 31.0405 20.7397 30.9334L20.3902 30.8827C20.0692 30.8412 19.8119 30.7766 19.8119 30.548C19.8119 30.2987 20.0544 30.1486 20.4613 30.1486C20.8966 30.1486 21.318 30.3128 21.5245 30.441L21.8456 29.8415L21.8443 29.8407ZM31.4132 29.4845C30.9854 29.4845 30.7067 29.6846 30.5149 29.9843V29.5695H29.78V32.9798H30.5216V31.0681C30.5216 30.5037 30.7641 30.1902 31.2488 30.1902C31.4076 30.1879 31.5652 30.2171 31.7126 30.276L31.9412 29.577C31.777 29.5124 31.563 29.4839 31.4128 29.4839M25.0848 29.5695H23.8721V28.5349H23.1224V29.5695H22.4307V30.2473H23.1224V31.803C23.1224 32.5943 23.4295 33.0656 24.3068 33.0656C24.6287 33.0656 24.9994 32.9658 25.2346 32.8019L25.0204 32.1669C24.7991 32.2951 24.5566 32.3597 24.3638 32.3597C23.9931 32.3597 23.8721 32.1311 23.8721 31.7889V30.248H25.0848V29.5695ZM13.9974 32.9806V30.8404C13.9974 30.0343 13.4837 29.492 12.6557 29.4847C12.2204 29.4775 11.7714 29.613 11.457 30.0915C11.2218 29.7133 10.8511 29.4847 10.3299 29.4847C9.96568 29.4847 9.60973 29.5918 9.33109 29.9911V29.5695H8.58887V32.9798H9.33691V31.0889C9.33691 30.4969 9.66521 30.1823 10.1722 30.1823C10.6647 30.1823 10.9138 30.5033 10.9138 31.0814V32.9793H11.6635V31.0885C11.6635 30.4965 12.0057 30.1819 12.498 30.1819C13.0044 30.1819 13.246 30.5029 13.246 31.081V32.9789L13.9974 32.9806Z" fill="#231F20"/>
<path d="M47.5987 21.6366V21.1379H47.4689L47.3186 21.4802L47.1692 21.1379H47.0389V21.6366H47.1312V21.261L47.2717 21.5851H47.3673L47.5077 21.2601V21.6366H47.5991H47.5987ZM46.7748 21.6366V21.2233H46.9411V21.1392H46.5164V21.2233H46.6826V21.6366H46.774H46.7748Z" fill="#F79410"/>
<path d="M32.8381 23.7753H21.5996V3.57825H32.8383L32.8381 23.7753Z" fill="#FF5F00"/>
<path d="M22.3121 13.6772C22.3121 9.58019 24.2304 5.93059 27.2175 3.57863C24.9564 1.7957 22.1597 0.828035 19.2802 0.832289C12.1869 0.832289 6.43701 6.58305 6.43701 13.6772C6.43701 20.7713 12.1869 26.522 19.2802 26.522C22.1598 26.5263 24.9566 25.5587 27.2178 23.7757C24.2308 21.4242 22.3121 17.7743 22.3121 13.6772Z" fill="#EB001B"/>
<path d="M48 13.6773C48 20.7714 42.2501 26.5222 35.1568 26.5222C32.2769 26.5264 29.4799 25.5587 27.2183 23.7758C30.2063 21.4239 32.1246 17.7745 32.1246 13.6773C32.1246 9.58011 30.2063 5.93071 27.2183 3.57875C29.4798 1.79587 32.2768 0.828231 35.1566 0.832411C42.2499 0.832411 47.9998 6.58317 47.9998 13.6773" fill="#F79E1B"/>
</svg>
