<svg width="58" height="37" viewBox="0 0 58 37" fill="none" xmlns="http://www.w3.org/2000/svg">
<path d="M0 0H58V37H0V0Z" fill="#8A05BE"/>
<path d="M45.8157 24.4773C45.8157 25.6736 44.4417 27.1442 43.3243 27.1442H42.3069C42.3079 19.8227 42.3079 11.6147 42.3069 10.1578C42.3064 10.1147 42.3142 10.0718 42.3297 10.0318C42.3452 9.99181 42.3682 9.95537 42.3973 9.92459C42.4264 9.8938 42.461 9.86928 42.4992 9.85243C42.5375 9.83559 42.5785 9.82674 42.62 9.8264H45.501C45.6741 9.8264 45.8158 9.97724 45.8158 10.1604V24.4773H45.8157ZM41.1209 29.7134C41.1209 30.4706 40.7643 31.7392 38.3751 31.7392C33.7451 31.7392 30.9029 27.9707 30.9029 25.2679C30.9029 25.2679 30.8978 16.5286 30.8978 10.1606C30.8973 10.1173 30.905 10.0745 30.9206 10.0344C30.9361 9.99431 30.9591 9.95782 30.9883 9.92702C31.0175 9.89622 31.0522 9.87172 31.0905 9.85492C31.1288 9.83813 31.17 9.82937 31.2116 9.82916H34.096C34.2692 9.82916 34.4114 9.97903 34.4114 10.1633V24.2052C34.4114 26.5253 36.1788 28.4071 38.3576 28.4071H41.1225L41.1209 29.7134ZM45.7197 8.56708H42.4009C41.6953 8.56708 41.1206 9.17936 41.1206 9.93048V27.1457H38.3556C36.8301 27.1457 35.5937 25.8289 35.5937 24.2049V9.93048C35.5937 9.17758 35.0198 8.56643 34.3128 8.56643H30.9926C30.2856 8.56643 29.7118 9.17758 29.7108 9.93048C29.709 16.1547 29.7159 25.2682 29.7159 25.2682C29.7164 30.0585 34.759 33 38.3742 33C40.7992 33 42.3053 31.7379 42.3053 29.7047V28.4068H43.3238C45.1103 28.4068 47 26.3874 47 24.4773V9.93048C47.0017 9.17758 46.428 8.56643 45.7198 8.56643V8.56708H45.7197ZM26.1054 26.8396C26.1058 26.8828 26.098 26.9256 26.0824 26.9656C26.0669 27.0056 26.0438 27.042 26.0147 27.0727C25.9856 27.1034 25.9509 27.1279 25.9126 27.1446C25.8743 27.1614 25.8332 27.1701 25.7917 27.1703H22.9073C22.7318 27.1703 22.5911 27.0192 22.5919 26.837V12.795C22.5919 10.4751 20.824 8.59322 18.6456 8.59322H15.8806V7.28664C15.8806 6.53099 16.2373 5.26078 18.6264 5.26078C23.2566 5.26078 26.0996 9.02918 26.0996 11.7321C26.0996 11.7321 26.1047 20.5138 26.1047 26.8394H26.1054V26.8396ZM11.4991 27.1733C11.3236 27.1679 11.1832 27.021 11.1853 26.8386V12.5243C11.1853 11.3278 12.5594 9.8553 13.6763 9.8553H14.6947C14.6931 20.3399 14.6931 25.7048 14.6947 26.838C14.6955 26.9255 14.6629 27.0099 14.604 27.0725C14.5451 27.1351 14.4647 27.1709 14.3804 27.1721H11.4996L11.4991 27.1733ZM27.2835 11.7323C27.2841 6.94145 22.2413 4 18.6266 4C16.201 4 14.6947 5.26192 14.6947 7.29525V8.59322H13.6768C11.8897 8.59322 10 10.6126 10 12.5228V27.0695C10 27.8224 10.5737 28.4336 11.2805 28.4336H14.5986C14.6192 28.4336 14.6369 28.4277 14.6575 28.4277C15.3356 28.3938 15.8789 27.8005 15.8789 27.0695V9.85433H18.6444C20.1693 9.85433 21.4063 11.1711 21.4063 12.7951V27.0697C21.4063 27.8226 21.9802 28.4337 22.6867 28.4337H26.0075C26.7146 28.4337 27.288 27.8242 27.288 27.0697C27.2905 20.7294 27.2839 11.7319 27.2839 11.7319L27.2835 11.7323Z" fill="white"/>
</svg>
